# xmcd
#
# Track frame offsets:
#	150
#	36778
#	65148
#	101543
#	131796
#	156697
#	184580
#	241890
#
# Disc length: 3511 seconds
#
# Revision: 0
# Processed by: cddbd v1.5.2PL0 Copyright (c) Steve Scherf et al.
# Submitted via: audiograbber 1.83.01
#
DISCID=710db508
DTITLE=Grateful Dead - 93-12-19 Oakland Coliseum Arena, Oakland CA
DYEAR=1900
DGENRE=
TTITLE0=Bertha
TTITLE1=Wang Dang Doodle
TTITLE2=Loose Lucy
TTITLE3=Queen Jane Approximately
TTITLE4=It Must Have Been The Roses
TTITLE5=It's All Over Now
TTITLE6=Bird Song
TTITLE7=Promised Land
EXTD=
EXTT0=
EXTT1=
EXTT2=
EXTT3=
EXTT4=
EXTT5=
EXTT6=
EXTT7=
PLAYORDER=
